<svg width="273" height="62" viewBox="0 0 273 62" fill="none" xmlns="http://www.w3.org/2000/svg">
<path d="M69.4298 47.1951C68.3022 47.1951 67.282 46.8195 66.3692 46.0683C65.4564 45.2634 65 44.1634 65 42.7683V19.1854C65 17.9512 65.4027 16.9585 66.2081 16.2073C67.0672 15.4024 68.0606 15 69.1881 15H76.759C79.2826 15 81.5109 15.6976 83.4439 17.0927C85.3769 18.4341 86.3433 20.3659 86.3433 22.8878C86.3433 24.2293 86.048 25.4902 85.4574 26.6707C84.9205 27.7976 84.1956 28.6561 83.2828 29.2463C84.8399 29.7829 86.0749 30.7756 86.9877 32.2244C87.9005 33.6195 88.3569 35.2829 88.3569 37.2146C88.3569 40.4341 87.3904 42.9024 85.4574 44.6195C83.5244 46.3366 81.1082 47.1951 78.2087 47.1951H69.4298ZM72.5708 42.2854H78.2087C79.9269 42.2854 81.1619 41.7756 81.9136 40.7561C82.719 39.6829 83.1217 38.5293 83.1217 37.2951C83.1217 36.1683 82.7459 35.0951 81.9941 34.0756C81.2424 33.0561 80.088 32.5463 78.5309 32.5463H72.2487C71.0674 32.5463 70.4768 33.1634 70.4768 34.3976V40.1927C70.4768 41.5878 71.1748 42.2854 72.5708 42.2854ZM72.2487 28.039H76.9201C78.2624 28.039 79.2826 27.5829 79.9806 26.6707C80.6786 25.7585 81.0276 24.7927 81.0276 23.7732C81.0276 22.8073 80.6786 21.922 79.9806 21.1171C79.3363 20.2585 78.3161 19.8293 76.9201 19.8293H72.6514C71.2017 19.8293 70.4768 20.5268 70.4768 21.922V26.1878C70.4768 27.422 71.0674 28.039 72.2487 28.039Z" fill="#2B7FFF"/>
<path d="M104.493 48C102.131 48 99.9831 47.4634 98.0501 46.3902C96.1708 45.3171 94.6942 43.8415 93.6203 41.9634C92.5465 40.0317 92.0095 37.8854 92.0095 35.5244C92.0095 33.2171 92.5465 31.1512 93.6203 29.3268C94.6942 27.5024 96.1708 26.0805 98.0501 25.061C99.9831 23.9878 102.131 23.4512 104.493 23.4512C106.856 23.4512 108.977 23.9878 110.856 25.061C112.735 26.0805 114.212 27.5024 115.286 29.3268C116.413 31.1512 116.977 33.2171 116.977 35.5244C116.977 37.8854 116.413 40.0317 115.286 41.9634C114.212 43.8415 112.735 45.3171 110.856 46.3902C108.977 47.4634 106.856 48 104.493 48ZM104.493 43.0098C106.587 43.0098 108.279 42.339 109.567 40.9976C110.856 39.6024 111.5 37.778 111.5 35.5244C111.5 33.378 110.856 31.661 109.567 30.3732C108.279 29.0854 106.587 28.4415 104.493 28.4415C102.346 28.4415 100.627 29.0854 99.3387 30.3732C98.1038 31.661 97.4863 33.378 97.4863 35.5244C97.4863 37.778 98.1038 39.6024 99.3387 40.9976C100.627 42.339 102.346 43.0098 104.493 43.0098Z" fill="#2B7FFF"/>
<path d="M127.515 48C125.421 48 124.106 47.0073 123.569 45.022L118.656 26.9927C118.602 26.8317 118.575 26.6707 118.575 26.5098C118.575 26.3488 118.575 26.2146 118.575 26.1073C118.575 25.3561 118.817 24.739 119.3 24.2561C119.837 23.7195 120.508 23.4512 121.314 23.4512C121.904 23.4512 122.441 23.6122 122.925 23.9341C123.462 24.2024 123.784 24.6317 123.891 25.222L126.871 39.2268C126.979 39.8171 127.22 40.1122 127.596 40.1122C127.972 40.1122 128.24 39.8171 128.401 39.2268L132.59 26.8317C132.858 26.0805 133.314 25.5439 133.959 25.222C134.603 24.8463 135.274 24.6585 135.972 24.6585C136.67 24.6585 137.315 24.8463 137.905 25.222C138.55 25.5439 138.979 26.0805 139.194 26.8317L143.382 39.2268C143.543 39.8171 143.812 40.1122 144.187 40.1122C144.563 40.1122 144.805 39.8171 144.912 39.2268L147.892 25.222C148 24.6317 148.295 24.2024 148.778 23.9341C149.315 23.6122 149.879 23.4512 150.47 23.4512C151.275 23.4512 151.919 23.7195 152.403 24.2561C152.94 24.739 153.208 25.3561 153.208 26.1073C153.208 26.2146 153.208 26.3488 153.208 26.5098C153.208 26.6707 153.181 26.8317 153.128 26.9927L148.215 45.022C147.678 47.0073 146.362 48 144.268 48C143.355 48 142.523 47.7317 141.771 47.1951C141.073 46.6049 140.59 45.8805 140.321 45.022L136.617 33.2707C136.402 32.5732 136.16 32.2244 135.892 32.2244C135.57 32.2244 135.301 32.5732 135.086 33.2707L131.462 45.022C131.194 45.8805 130.683 46.6049 129.932 47.1951C129.234 47.7317 128.428 48 127.515 48Z" fill="#2B7FFF"/>
<path d="M168.124 48C165.761 48 163.614 47.4634 161.681 46.3902C159.801 45.3171 158.325 43.8415 157.251 41.9634C156.177 40.0317 155.64 37.8854 155.64 35.5244C155.64 33.2171 156.177 31.1512 157.251 29.3268C158.325 27.5024 159.801 26.0805 161.681 25.061C163.614 23.9878 165.761 23.4512 168.124 23.4512C170.486 23.4512 172.607 23.9878 174.487 25.061C176.366 26.0805 177.842 27.5024 178.916 29.3268C180.044 31.1512 180.608 33.2171 180.608 35.5244C180.608 37.8854 180.044 40.0317 178.916 41.9634C177.842 43.8415 176.366 45.3171 174.487 46.3902C172.607 47.4634 170.486 48 168.124 48ZM168.124 43.0098C170.218 43.0098 171.909 42.339 173.198 40.9976C174.487 39.6024 175.131 37.778 175.131 35.5244C175.131 33.378 174.487 31.661 173.198 30.3732C171.909 29.0854 170.218 28.4415 168.124 28.4415C165.976 28.4415 164.258 29.0854 162.969 30.3732C161.734 31.661 161.117 33.378 161.117 35.5244C161.117 37.778 161.734 39.6024 162.969 40.9976C164.258 42.339 165.976 43.0098 168.124 43.0098Z" fill="#2B7FFF"/>
<path d="M190.885 35.2829V45.5049C190.885 46.3098 190.59 46.9268 190 47.3561C189.463 47.7854 188.845 48 188.147 48C187.449 48 186.805 47.7854 186.214 47.3561C185.677 46.9268 185.409 46.3098 185.409 45.5049V26.5902C185.409 25.678 185.677 25.0073 186.214 24.578C186.805 24.0951 187.449 23.8537 188.147 23.8537C188.845 23.8537 189.463 24.0951 190 24.578C190.59 25.0073 190.885 25.678 190.885 26.5902V26.9122C191.637 25.8927 192.604 25.061 193.785 24.4171C195.02 23.7732 196.309 23.4512 197.651 23.4512C198.295 23.4512 198.94 23.5317 199.584 23.6927C200.228 23.8537 200.711 24.1756 201.034 24.6585C201.356 25.1415 201.517 25.678 201.517 26.2683C201.517 26.9659 201.275 27.6098 200.792 28.2C200.362 28.7366 199.718 29.0049 198.859 29.0049C198.483 29.0049 198.08 28.9512 197.651 28.8439C197.275 28.7366 196.792 28.6829 196.201 28.6829C194.644 28.6829 193.355 29.2732 192.335 30.4537C191.369 31.6341 190.885 33.2439 190.885 35.2829Z" fill="#2B7FFF"/>
<path d="M214.754 48C212.445 48 210.378 47.4634 208.552 46.3902C206.727 45.3171 205.304 43.8415 204.284 41.9634C203.263 40.0317 202.753 37.8854 202.753 35.5244C202.753 33.2171 203.263 31.1512 204.284 29.3268C205.304 27.5024 206.727 26.0805 208.552 25.061C210.378 23.9878 212.445 23.4512 214.754 23.4512C216.257 23.4512 217.6 23.7195 218.781 24.2561C219.962 24.739 220.982 25.3829 221.841 26.1878C221.949 25.4366 222.271 24.8732 222.808 24.4976C223.345 24.0683 223.936 23.8537 224.58 23.8537C225.278 23.8537 225.895 24.0951 226.432 24.578C227.023 25.0073 227.318 25.678 227.318 26.5902V45.5049C227.318 46.3098 227.023 46.9268 226.432 47.3561C225.895 47.7854 225.278 48 224.58 48C223.882 48 223.238 47.7854 222.647 47.3561C222.11 46.9268 221.841 46.3098 221.841 45.5049V45.1829C220.982 46.0415 219.962 46.7122 218.781 47.1951C217.6 47.7317 216.257 48 214.754 48ZM215.237 43.0098C217.278 43.0098 218.888 42.339 220.07 40.9976C221.251 39.6024 221.841 37.778 221.841 35.5244C221.841 33.378 221.251 31.661 220.07 30.3732C218.888 29.0854 217.278 28.4415 215.237 28.4415C213.143 28.4415 211.452 29.0854 210.163 30.3732C208.874 31.661 208.23 33.378 208.23 35.5244C208.23 37.778 208.874 39.6024 210.163 40.9976C211.452 42.339 213.143 43.0098 215.237 43.0098Z" fill="#2B7FFF"/>
<path d="M233.216 47.6479C232.833 47.6479 232.501 47.5171 232.219 47.2555C231.958 47.014 231.827 46.7223 231.827 46.3802C231.827 46.018 231.958 45.7162 232.219 45.4747C232.501 45.2131 232.833 45.0823 233.216 45.0823C233.578 45.0823 233.891 45.2131 234.152 45.4747C234.414 45.7162 234.545 46.018 234.545 46.3802C234.545 46.7223 234.414 47.014 234.152 47.2555C233.891 47.5171 233.578 47.6479 233.216 47.6479Z" fill="#2B7FFF"/>
<path d="M241.437 47.497C240.088 47.497 238.981 47.0643 238.115 46.1991C237.249 45.3338 236.816 44.207 236.816 42.8186C236.816 41.9332 237.017 41.1485 237.42 40.4643C237.823 39.7802 238.366 39.247 239.051 38.8646C239.756 38.4823 240.551 38.2912 241.437 38.2912C242.645 38.2912 243.672 38.5729 244.518 39.1363C244.8 39.3174 244.941 39.5689 244.941 39.8909C244.941 40.2128 244.84 40.4643 244.639 40.6454C244.437 40.8265 244.206 40.9171 243.944 40.9171C243.763 40.9171 243.602 40.8768 243.461 40.7963C242.716 40.2933 242.021 40.072 241.377 40.1323C240.591 40.2128 239.977 40.4845 239.534 40.9473C239.091 41.3899 238.87 42.0238 238.87 42.8488C238.87 43.714 239.101 44.3982 239.565 44.9012C240.048 45.3841 240.722 45.6256 241.588 45.6256C242.353 45.6256 243.118 45.3338 243.884 44.7503C244.045 44.6095 244.256 44.539 244.518 44.539C244.82 44.539 245.041 44.6598 245.182 44.9012C245.343 45.1226 245.424 45.3338 245.424 45.5351C245.424 45.8168 245.293 46.0784 245.031 46.3198C244.528 46.7625 243.974 47.0643 243.37 47.2253C242.766 47.4064 242.122 47.497 241.437 47.497Z" fill="#2B7FFF"/>
<path d="M251.172 47.497C250.286 47.497 249.48 47.2957 248.756 46.8933C248.051 46.4909 247.497 45.9375 247.094 45.2332C246.692 44.5088 246.49 43.704 246.49 42.8186C246.49 41.9534 246.692 41.1787 247.094 40.4945C247.497 39.8104 248.051 39.2771 248.756 38.8948C249.48 38.4924 250.286 38.2912 251.172 38.2912C252.058 38.2912 252.853 38.4924 253.558 38.8948C254.263 39.2771 254.816 39.8104 255.219 40.4945C255.642 41.1787 255.853 41.9534 255.853 42.8186C255.853 43.704 255.642 44.5088 255.219 45.2332C254.816 45.9375 254.263 46.4909 253.558 46.8933C252.853 47.2957 252.058 47.497 251.172 47.497ZM251.172 45.6256C251.957 45.6256 252.591 45.3741 253.075 44.871C253.558 44.3479 253.799 43.6637 253.799 42.8186C253.799 42.0137 253.558 41.3698 253.075 40.8869C252.591 40.404 251.957 40.1625 251.172 40.1625C250.366 40.1625 249.722 40.404 249.239 40.8869C248.776 41.3698 248.544 42.0137 248.544 42.8186C248.544 43.6637 248.776 44.3479 249.239 44.871C249.722 45.3741 250.366 45.6256 251.172 45.6256Z" fill="#2B7FFF"/>
<path d="M258.681 47.497C258.419 47.497 258.177 47.4165 257.956 47.2555C257.754 47.0945 257.654 46.8631 257.654 46.5613V39.4683C257.654 39.1262 257.754 38.8747 257.956 38.7137C258.177 38.5326 258.419 38.4421 258.681 38.4421C258.882 38.4421 259.073 38.4924 259.254 38.593C259.436 38.6735 259.567 38.8244 259.647 39.0457C259.687 39.1665 259.707 39.2771 259.707 39.3777C260.009 39.0558 260.402 38.7942 260.885 38.593C261.369 38.3918 261.842 38.2912 262.305 38.2912C263.614 38.2912 264.58 38.8143 265.204 39.8607C265.446 39.4381 265.839 39.0759 266.382 38.7741C266.946 38.4521 267.631 38.2912 268.436 38.2912C269.523 38.2912 270.389 38.6534 271.034 39.3777C271.678 40.1021 272 41.1686 272 42.5771V46.5613C272 46.8631 271.889 47.0945 271.668 47.2555C271.446 47.4165 271.215 47.497 270.973 47.497C270.711 47.497 270.47 47.4165 270.248 47.2555C270.047 47.0945 269.946 46.8631 269.946 46.5613V42.7582C269.946 41.0277 269.302 40.1625 268.013 40.1625C267.288 40.1625 266.765 40.3537 266.443 40.736C266.121 41.1183 265.919 41.571 265.839 42.0942V46.5613C265.839 46.8631 265.728 47.0945 265.506 47.2555C265.285 47.4165 265.053 47.497 264.812 47.497C264.55 47.497 264.308 47.4165 264.087 47.2555C263.886 47.0945 263.785 46.8631 263.785 46.5613V42.7582C263.785 41.8729 263.614 41.2189 263.271 40.7963C262.929 40.3738 262.466 40.1625 261.882 40.1625C261.016 40.1625 260.432 40.4341 260.13 40.9774C259.848 41.5006 259.707 42.0841 259.707 42.7281V46.5613C259.707 46.8631 259.597 47.0945 259.375 47.2555C259.174 47.4165 258.942 47.497 258.681 47.497Z" fill="#2B7FFF"/>
<path fill-rule="evenodd" clip-rule="evenodd" d="M46.8514 8.58812C47.143 9.06522 46.9922 9.68944 46.5151 9.981C46.038 10.2726 45.4138 10.1218 45.1222 9.64469C43.7413 7.38444 41.811 5.6003 39.337 4.28622L39.3282 4.2816C36.8868 2.95389 34.0362 2.29977 30.7806 2.29977H5.06813C4.19929 2.29977 3.51623 2.42086 3.03354 2.72945L3.01457 2.74136C2.66124 2.95657 2.41273 3.28412 2.24932 3.71963C2.09733 4.24682 2.02633 4.86763 2.02633 5.58036V55.5903C2.02633 56.3398 2.10633 57.0398 2.27169 57.6971C2.38379 58.0937 2.59486 58.3982 2.92241 58.5976L2.94138 58.6095C3.42407 58.9181 4.10713 59.0392 4.97597 59.0392H31.7022C34.1538 59.0392 36.4601 58.6418 38.6201 57.8433C40.771 56.9922 42.6614 55.8245 44.2896 54.337C44.7025 53.9598 45.344 53.9888 45.7212 54.4017C46.0983 54.8146 46.0694 55.4561 45.6565 55.8332C43.8466 57.4865 41.7466 58.787 39.355 59.732L39.3346 59.7397C36.9513 60.6224 34.4075 61.0657 31.7022 61.0657H4.97597C3.63854 61.0657 2.60483 60.7963 1.85927 60.3229C1.09086 59.8518 0.56926 59.1537 0.312473 58.2151L0.307366 58.1959C0.10359 57.3893 0 56.5209 0 55.5903V5.58036C0 4.62665 0.110155 3.80085 0.318794 3.1015L0.337762 3.04411C0.667256 2.14049 1.21147 1.46934 1.95168 1.01608C2.69723 0.542869 3.73094 0.273438 5.06813 0.273438H30.7806C34.4046 0.273438 37.5733 1.02167 40.2917 2.49892C43.0993 3.99101 45.2842 6.02244 46.8514 8.58812Z" fill="#2B7FFF"/>
<path d="M9.84596 54.0885C9.0452 54.0885 8.4222 53.9319 7.97745 53.6187C7.57695 53.3502 7.30995 52.9476 7.17669 52.4106C7.04319 51.829 6.97656 51.2026 6.97656 50.5317V10.6687C6.97656 9.99755 7.04319 9.41589 7.17669 8.92396C7.35469 8.38704 7.64382 7.98436 8.04432 7.7159C8.48932 7.40269 9.11208 7.24609 9.91308 7.24609H28.5325C31.0241 7.24609 33.2041 7.80538 35.0726 8.92396C36.9856 10.0425 38.4762 11.5636 39.5437 13.4873C40.6115 15.4112 41.1231 17.5139 41.0786 19.7956C41.1231 20.9589 40.9896 22.0996 40.6781 23.2182C40.3666 24.3368 39.8995 25.388 39.2767 26.3723C38.6982 27.3119 37.9643 28.0949 37.0744 28.7211C38.2756 29.4817 39.2989 30.4661 40.1441 31.6739C40.9894 32.882 41.6345 34.224 42.0795 35.7005C42.5245 37.1768 42.7468 38.7205 42.7468 40.331C42.7023 42.2547 42.3463 44.0665 41.679 45.7668C41.0115 47.4223 40.0551 48.8762 38.8094 50.1287C37.5636 51.3815 36.1177 52.3659 34.4715 53.0815C32.8252 53.7527 31.0678 54.0883 29.1993 54.0883H9.84572L9.84596 54.0885Z" fill="#2B7FFF"/>
</svg>
